<svg width="503" height="503" viewBox="0 0 503 503" fill="none" xmlns="http://www.w3.org/2000/svg">
<g clip-path="url(#clip0_15_41)">
<path d="M0 290.4C12.8 288 25.6 286.4 39.2 286.4C112.8 286.4 176 330.4 204 392.8L404 192.8C320 82.4 188 11.2 38.4 11.2C25.6 11.2 12.8 12 0 12.8V290.4Z" fill="#FFD700"/>
<path d="M0 290.4C12.8 288 25.6 286.4 39.2 286.4C112.8 286.4 176 330.4 204 392.8L404 192.8" fill="#FFD700"/>
<path d="M501.6 474.4C504 476.8 503.2 483.2 498.4 487.2C493.6 492 488 492.8 485.6 490.4L332.8 337.6C330.4 335.2 331.2 328.8 336 324.8C340.8 320 346.4 319.2 348.8 321.6L501.6 474.4Z" fill="#AABEBF"/>
<path d="M336 324.8C340.8 320 346.4 319.2 348.8 321.6L501.6 474.4C504 476.8 503.2 483.2 498.4 487.2" fill="#889E9E"/>
<path d="M226.4 352.8H179.2V400H226.4V352.8Z" fill="#00233F"/>
<path d="M244.8 334.4H197.6V381.6H244.8V334.4Z" fill="#00233F"/>
<path d="M263.2 316H216V363.2H263.2V316Z" fill="#00233F"/>
<path d="M281.6 296.8H234.4V344H281.6V296.8Z" fill="#00233F"/>
<path d="M300 278.4H252.8V325.6H300V278.4Z" fill="#00233F"/>
<path d="M318.4 260H271.2V308H318.4V260Z" fill="#00233F"/>
<path d="M336.8 241.6H289.6V288.8H336.8V241.6Z" fill="#00233F"/>
<path d="M356 223.2H308.8V270.4H356V223.2Z" fill="#00233F"/>
<path d="M374.4 204.8H327.2V252H374.4V204.8Z" fill="#00233F"/>
<path d="M392.8 186.4H345.6V233.6H392.8V186.4Z" fill="#00233F"/>
<path d="M411.2 168H364V215.2H411.2V168Z" fill="#00233F"/>
<path d="M226.4 352.8H179.2V400H226.4V352.8Z" fill="#00233F"/>
<path d="M244.8 334.4H197.6V381.6H244.8V334.4Z" fill="#00233F"/>
<path d="M263.2 316H216V363.2H263.2V316Z" fill="#00233F"/>
<path d="M281.6 296.8H234.4V344H281.6V296.8Z" fill="#00233F"/>
<path d="M300 278.4H252.8V325.6H300V278.4Z" fill="#00233F"/>
<path d="M318.4 260H271.2V308H318.4V260Z" fill="#00233F"/>
<path d="M336.8 241.6H289.6V288.8H336.8V241.6Z" fill="#00233F"/>
<path d="M356 223.2H308.8V270.4H356V223.2Z" fill="#00233F"/>
<path d="M374.4 204.8H327.2V252H374.4V204.8Z" fill="#00233F"/>
<path d="M392.8 186.4H345.6V233.6H392.8V186.4Z" fill="#00233F"/>
<path d="M411.2 168H364V215.2H411.2V168Z" fill="#00233F"/>
<path d="M189.6 363.2H208V344.8H227.2V326.4H245.6V308H264V289.6H282.4V271.2H300.8V252.8H319.2V234.4H337.6V215.2H356V196.8H375.2V178.4H411.2V168H364V186.4H345.6V204.8H327.2V223.2H308.8V241.6H289.6V260H271.2V278.4H252.8V296.8H234.4V316H216V334.4H197.6V352.8H179.2V400H189.6V363.2Z" fill="#0A4D7A"/>
<path d="M436.8 162.4C444.8 170.4 453.6 175.2 437.6 191.2L202.4 426.4C186.4 442.4 181.6 433.6 173.6 425.6C165.6 417.6 172 397.6 188 381.6L393.6 176C409.6 160.8 428.8 154.4 436.8 162.4Z" fill="#889E9E"/>
<path d="M436.8 162.4C444.8 170.4 453.6 175.2 437.6 191.2L202.4 426.4C186.4 442.4 181.6 433.6 173.6 425.6" fill="#AABEBF"/>
<path d="M362.4 261.6C376.8 276 384 323.2 359.2 348C334.4 372.8 287.2 365.6 272.8 351.2C258.4 336.8 281.6 320 306.4 295.2C332 271.2 348 247.2 362.4 261.6Z" fill="#AABEBF"/>
<path d="M342.4 292C344 293.6 344 296.8 342.4 299.2L310.4 331.2C308.8 332.8 305.6 332.8 303.2 331.2C301.6 329.6 301.6 326.4 303.2 324L334.4 292.8C336.8 290.4 340 290.4 342.4 292Z" fill="#889E9E"/>
<path d="M348.8 316C349.6 316.8 349.6 319.2 348.8 320L331.2 337.6C330.4 338.4 328 338.4 327.2 337.6C326.4 336.8 326.4 334.4 327.2 333.6L344.8 316C346.4 315.2 348 315.2 348.8 316Z" fill="#889E9E"/>
<path d="M64 117.6C66.2091 117.6 68 106.855 68 93.6C68 80.3452 66.2091 69.6 64 69.6C61.7909 69.6 60 80.3452 60 93.6C60 106.855 61.7909 117.6 64 117.6Z" fill="#FDFFFF"/>
<path d="M64 97.6C77.2548 97.6 88 95.8091 88 93.6C88 91.3909 77.2548 89.6 64 89.6C50.7452 89.6 40 91.3909 40 93.6C40 95.8091 50.7452 97.6 64 97.6Z" fill="#FDFFFF"/>
<path d="M264 168C267.976 168 271.2 147.226 271.2 121.6C271.2 95.974 267.976 75.2 264 75.2C260.024 75.2 256.8 95.974 256.8 121.6C256.8 147.226 260.024 168 264 168Z" fill="#FDFFFF"/>
<path d="M264 128.8C289.626 128.8 310.4 125.576 310.4 121.6C310.4 117.624 289.626 114.4 264 114.4C238.374 114.4 217.6 117.624 217.6 121.6C217.6 125.576 238.374 128.8 264 128.8Z" fill="#FDFFFF"/>
<path d="M79.4327 200.21C88.8119 190.844 95.1497 181.984 93.5887 180.421C92.0278 178.858 83.1591 185.183 73.7799 194.549C64.4008 203.915 58.063 212.775 59.6239 214.338C61.1849 215.901 70.0536 209.576 79.4327 200.21Z" fill="#FDFFFF"/>
<path d="M74.0365 199.721C83.409 209.093 92.2732 215.425 93.8353 213.863C95.3974 212.301 89.0658 203.437 79.6933 194.064C70.3208 184.692 61.4566 178.36 59.8945 179.922C58.3324 181.484 64.664 190.348 74.0365 199.721Z" fill="#FDFFFF"/>
<path d="M172 131.2C179.953 131.2 186.4 130.125 186.4 128.8C186.4 127.475 179.953 126.4 172 126.4C164.047 126.4 157.6 127.475 157.6 128.8C157.6 130.125 164.047 131.2 172 131.2Z" fill="#FDFFFF"/>
<path d="M172 143.2C173.325 143.2 174.4 136.753 174.4 128.8C174.4 120.847 173.325 114.4 172 114.4C170.675 114.4 169.6 120.847 169.6 128.8C169.6 136.753 170.675 143.2 172 143.2Z" fill="#FDFFFF"/>
<path d="M121.393 74.8322C125.781 70.472 128.833 66.4293 128.21 65.8025C127.587 65.1757 123.525 68.2023 119.138 72.5625C114.75 76.9227 111.699 80.9655 112.321 81.5922C112.944 82.219 117.006 79.1925 121.393 74.8322Z" fill="#FDFFFF"/>
<path d="M119.141 75.3382C123.508 79.7188 127.555 82.7643 128.181 82.1404C128.807 81.5166 125.774 77.4596 121.407 73.079C117.04 68.6984 112.992 65.6529 112.367 66.2768C111.741 66.9006 114.774 70.9576 119.141 75.3382Z" fill="#FDFFFF"/>
<path d="M133.982 162.614C138.369 158.253 141.421 154.211 140.798 153.584C140.175 152.957 136.113 155.984 131.726 160.344C127.339 164.704 124.287 168.747 124.91 169.374C125.533 170 129.594 166.974 133.982 162.614Z" fill="#FDFFFF"/>
<path d="M131.94 162.597C136.307 166.977 140.355 170.023 140.981 169.399C141.606 168.775 138.574 164.718 134.207 160.338C129.839 155.957 125.792 152.911 125.166 153.535C124.54 154.159 127.573 158.216 131.94 162.597Z" fill="#FDFFFF"/>
<path d="M150.4 231.2C152.609 231.2 154.4 229.409 154.4 227.2C154.4 224.991 152.609 223.2 150.4 223.2C148.191 223.2 146.4 224.991 146.4 227.2C146.4 229.409 148.191 231.2 150.4 231.2Z" fill="#FDFFFF"/>
<path d="M209.6 78.4C217.995 78.4 224.8 71.5947 224.8 63.2C224.8 54.8053 217.995 48 209.6 48C201.205 48 194.4 54.8053 194.4 63.2C194.4 71.5947 201.205 78.4 209.6 78.4Z" fill="#FDFFFF"/>
<path d="M63.2 156.8C64.0837 156.8 64.8 156.084 64.8 155.2C64.8 154.316 64.0837 153.6 63.2 153.6C62.3164 153.6 61.6 154.316 61.6 155.2C61.6 156.084 62.3164 156.8 63.2 156.8Z" fill="#FDFFFF"/>
<path d="M208.8 215.2C209.684 215.2 210.4 214.484 210.4 213.6C210.4 212.716 209.684 212 208.8 212C207.916 212 207.2 212.716 207.2 213.6C207.2 214.484 207.916 215.2 208.8 215.2Z" fill="#FDFFFF"/>
<path d="M272.8 216C277.218 216 280.8 212.418 280.8 208C280.8 203.582 277.218 200 272.8 200C268.382 200 264.8 203.582 264.8 208C264.8 212.418 268.382 216 272.8 216Z" fill="#FDFFFF"/>
<path d="M219.2 175.2C224.06 175.2 228 171.26 228 166.4C228 161.54 224.06 157.6 219.2 157.6C214.34 157.6 210.4 161.54 210.4 166.4C210.4 171.26 214.34 175.2 219.2 175.2Z" fill="#FDFFFF"/>
<path d="M163.2 73.6C164.967 73.6 166.4 72.1673 166.4 70.4C166.4 68.6327 164.967 67.2 163.2 67.2C161.433 67.2 160 68.6327 160 70.4C160 72.1673 161.433 73.6 163.2 73.6Z" fill="#FDFFFF"/>
<path d="M64 304.8C73.7202 304.8 81.6 296.92 81.6 287.2C81.6 277.48 73.7202 269.6 64 269.6C54.2798 269.6 46.4 277.48 46.4 287.2C46.4 296.92 54.2798 304.8 64 304.8Z" fill="#FDFFFF"/>
<path d="M124.8 273.6C127.009 273.6 128.8 271.809 128.8 269.6C128.8 267.391 127.009 265.6 124.8 265.6C122.591 265.6 120.8 267.391 120.8 269.6C120.8 271.809 122.591 273.6 124.8 273.6Z" fill="#FDFFFF"/>
<path d="M174.4 261.6C177.493 261.6 180 259.093 180 256C180 252.907 177.493 250.4 174.4 250.4C171.307 250.4 168.8 252.907 168.8 256C168.8 259.093 171.307 261.6 174.4 261.6Z" fill="#FDFFFF"/>
</g>
<defs>
<clipPath id="clip0_15_41">
<rect width="502.911" height="502.911" fill="white"/>
</clipPath>
</defs>
</svg>
