<svg width="188" height="188" viewBox="0 0 188 188" fill="none" xmlns="http://www.w3.org/2000/svg">
<g clip-path="url(#clip0_15_126)">
<path d="M93.667 187.334C145.398 187.334 187.334 145.398 187.334 93.667C187.334 41.9361 145.398 0 93.667 0C41.9361 0 0 41.9361 0 93.667C0 145.398 41.9361 187.334 93.667 187.334Z" fill="#FFD700"/>
<path d="M55.744 187.357C56.711 185.934 57.718 184.536 58.77 183.175C68.046 171.175 78.067 164.858 78.249 164.743C82.118 162.361 83.291 157.356 80.868 153.556C78.441 149.75 73.323 148.595 69.44 150.973C68.942 151.278 57.109 158.611 45.976 172.811C42.435 177.328 39.286 182.221 36.572 187.357H55.744Z" fill="#FFB37F"/>
<path d="M104.874 164.487C105.056 164.599 115.078 170.917 124.353 182.918C125.472 184.365 126.535 185.847 127.551 187.357H146.618C143.96 182.187 140.813 177.233 137.146 172.555C126.014 158.353 114.181 151.023 113.683 150.715C109.799 148.338 104.683 149.494 102.254 153.3C99.831 157.1 101.004 162.104 104.874 164.487Z" fill="#FFC695"/>
<path d="M128.302 187.357C126.316 165.433 121.371 158.58 117.13 154.046C113.035 149.668 99.093 143.061 91.775 144.986C84.458 143.061 70.515 149.668 66.42 154.046C62.18 158.58 57.234 165.433 55.249 187.357H128.302Z" fill="#F29555"/>
<path d="M129.07 187.357C127.249 164.535 121.431 158.644 117.129 154.046C115.749 152.569 113.249 150.843 110.262 149.273C105.675 154.966 98.592 158.675 90.752 158.675C83.271 158.675 76.478 155.296 71.884 150.038C69.524 151.389 67.577 152.807 66.419 154.045C62.118 158.643 56.665 164.534 54.795 187.356L129.07 187.357Z" fill="#FFD700"/>
<path d="M79.919 187.357L80.894 146.998L69.854 146.097L54.87 187.357H79.919Z" fill="#B8D6DD"/>
<path d="M128.889 187.357L113.903 146.097L102.865 146.998L103.845 187.357H128.889Z" fill="#D2EEF5"/>
<path d="M55.744 187.357C56.711 185.934 57.718 184.536 58.77 183.175C62.845 177.904 67.063 173.73 70.528 170.696V150.422C70.158 150.581 69.793 150.757 69.441 150.973C68.943 151.278 57.11 158.611 45.977 172.811C42.436 177.328 39.287 182.221 36.573 187.357H55.744Z" fill="#D2EEF5"/>
<path d="M124.353 182.918C125.472 184.365 126.535 185.847 127.551 187.357H146.608C143.951 182.188 140.814 177.231 137.147 172.555C126.015 158.353 114.182 151.023 113.684 150.715C113.538 150.626 113.386 150.551 113.236 150.472V171.006C116.573 173.985 120.526 177.966 124.353 182.918Z" fill="#D2EEF5"/>
<path d="M152.897 100.71C153.845 108.283 149.577 115.027 143.364 115.774C137.152 116.521 131.346 110.988 130.398 103.416C129.45 95.843 133.717 89.098 139.93 88.35C146.143 87.604 151.948 93.137 152.897 100.71Z" fill="#F29555"/>
<path d="M53.188 101.901C53.325 109.529 48.363 115.801 42.104 115.909C35.845 116.017 30.661 109.921 30.524 102.293C30.387 94.665 35.348 88.392 41.607 88.284C47.865 88.176 53.049 94.272 53.188 101.901Z" fill="#F29555"/>
<path d="M92.61 50.972C80.094 51.54 67.106 54.921 57.78 61.16C44.04 70.349 42.622 89.501 40.993 104.226C39.272 119.77 40.151 135.605 54.65 144.858C64.758 151.31 80.738 151.123 92.61 152.059V50.972V50.972Z" fill="#FFC695"/>
<path d="M91.768 50.972C104.285 51.54 116.443 54.921 125.769 61.16C139.51 70.349 140.927 89.501 142.557 104.226C144.277 119.77 143.399 135.605 128.9 144.858C118.791 151.31 103.641 151.123 91.769 152.059V50.972H91.768Z" fill="#FFC695"/>
<path d="M66.792 112.876C69.7633 112.876 72.172 110.516 72.172 107.604C72.172 104.692 69.7633 102.332 66.792 102.332C63.8207 102.332 61.412 104.692 61.412 107.604C61.412 110.516 63.8207 112.876 66.792 112.876Z" fill="#333331"/>
<path d="M116.756 112.876C119.727 112.876 122.136 110.516 122.136 107.604C122.136 104.692 119.727 102.332 116.756 102.332C113.785 102.332 111.376 104.692 111.376 107.604C111.376 110.516 113.785 112.876 116.756 112.876Z" fill="#333331"/>
<path d="M101.172 119.127C101.172 121.97 98.821 124.273 95.92 124.273H87.627C84.727 124.273 82.374 121.969 82.374 119.127C82.374 116.285 84.727 113.98 87.627 113.98H95.92C98.821 113.98 101.172 116.285 101.172 119.127Z" fill="#F29555"/>
<path d="M102.51 128.683C101.142 128.612 99.978 129.631 99.893 130.964C99.841 131.601 99.197 136.695 91.891 137.542C84.536 137.706 83.17 132.751 83.029 132.126C82.753 130.817 81.455 129.968 80.111 130.227C78.764 130.487 77.886 131.769 78.151 133.091C78.852 136.576 82.683 142.642 92.101 142.396L92.102 142.415C92.149 142.41 92.191 142.401 92.24 142.396C92.287 142.395 92.329 142.398 92.378 142.396L92.377 142.377C101.737 141.33 104.663 134.796 104.86 131.251C104.934 129.905 103.881 128.756 102.51 128.683Z" fill="#F29555"/>
<path d="M143.229 88.217C156.498 44.877 122.792 33.5 91.813 33.5C63.616 33.5 31.55 44.878 40.396 88.218C40.396 88.218 41.851 102.06 41.855 102.096C40.33 88.917 49.9 69.971 61.958 70.339C67.334 70.505 77.438 80.091 91.812 80.557C91.812 80.559 91.812 80.56 91.812 80.561C91.812 80.561 91.812 80.56 91.812 80.559C91.813 80.56 91.813 80.561 91.813 80.561C91.813 80.56 91.812 80.557 91.813 80.557C106.187 80.091 113.803 70.505 119.18 70.339C131.237 69.971 143.296 88.917 141.771 102.094C141.774 102.058 143.229 88.217 143.229 88.217Z" fill="#9A9798"/>
<path d="M116.415 92.146C108.347 92.146 101.658 97.972 100.455 105.554H82.702C81.741 97.708 74.918 91.603 66.658 91.603C57.741 91.603 50.487 98.711 50.487 107.45C50.487 116.188 57.742 123.297 66.658 123.297C74.535 123.297 81.105 117.747 82.533 110.431H100.456C101.658 118.012 108.347 123.839 116.416 123.839C125.333 123.839 132.588 116.731 132.588 107.992C132.587 99.254 125.332 92.146 116.415 92.146ZM66.657 119.233C60.027 119.233 54.632 113.947 54.632 107.45C54.632 100.953 60.027 95.667 66.657 95.667C73.287 95.667 78.682 100.953 78.682 107.45C78.682 113.947 73.288 119.233 66.657 119.233ZM116.415 119.775C109.785 119.775 104.391 114.488 104.391 107.991C104.391 101.494 109.786 96.208 116.415 96.208C123.045 96.208 128.44 101.494 128.44 107.991C128.44 114.489 123.045 119.775 116.415 119.775Z" fill="white"/>
<path d="M80.318 187.357L81.308 151.062L68.869 149.843L60.576 157.156L65.94 187.357H80.318Z" fill="#D2EEF5"/>
<path d="M67.646 187.357C63.565 160.961 70.953 151.557 71.027 151.466C71.317 151.129 71.471 150.725 71.502 150.316C70.088 150.109 68.689 149.867 67.316 149.584C65.469 152.335 59.808 163.104 63.452 187.357H67.646Z" fill="#333331"/>
<path d="M118.237 187.357L123.602 157.156L115.31 149.843L102.87 151.062L103.859 187.357H118.237Z" fill="#EBF5F7"/>
<path d="M121.404 187.357C120.168 167.208 115.7 154.214 114.067 150.048C112.677 150.291 111.269 150.493 109.853 150.666C110.839 153.061 115.861 166.186 117.228 187.357H121.404Z" fill="#333331"/>
</g>
<defs>
<clipPath id="clip0_15_126">
<rect width="187.334" height="187.334" fill="white"/>
</clipPath>
</defs>
</svg>
