<svg width="448" height="448" viewBox="0 0 448 448" fill="none" xmlns="http://www.w3.org/2000/svg">
<g clip-path="url(#clip0_15_202)">
<path d="M43.519 75.965V91.91H412.747V75.965H43.519Z" fill="#827B7A"/>
<path d="M224.051 99.973C206.472 99.973 192.043 114.403 192.043 131.981C192.043 149.561 206.472 163.989 224.051 163.989C241.629 163.989 255.941 149.559 255.941 131.981C255.941 114.403 241.63 99.973 224.051 99.973Z" fill="#FFD700"/>
<path d="M224.051 115.918C232.982 115.918 239.996 123.049 239.996 131.981C239.996 140.913 232.982 147.926 224.051 147.926C215.119 147.926 207.988 140.912 207.988 131.981C207.988 123.05 215.12 115.918 224.051 115.918Z" fill="#827B7A"/>
<path d="M311.791 67.965V83.91H411.964V67.965H311.791Z" fill="#FFD700"/>
<path d="M7.876 51.9301C3.458 51.9981 -0.0680043 55.6371 0.000995656 60.0551V91.838C-0.0650043 96.256 3.463 99.8911 7.881 99.9571C12.299 100.023 15.935 96.496 16.001 92.078C16.002 91.998 16.002 91.918 16.001 91.838V60.0551C16.07 55.6371 12.545 51.9981 8.126 51.9301C8.043 51.9281 7.959 51.9281 7.876 51.9301Z" fill="#FFD700"/>
<path d="M39.876 19.9301C35.458 19.9981 31.932 23.6361 32.001 28.0551V123.838C31.947 128.256 35.485 131.883 39.903 131.936C44.321 131.991 47.947 128.452 48.001 124.034C48.002 123.97 48.002 123.903 48.001 123.839V28.0561C48.07 23.6381 44.545 20.0001 40.126 19.9311C40.043 19.9291 39.959 19.9291 39.876 19.9301Z" fill="#FFD700"/>
<path d="M440.122 51.9301C444.54 51.9981 448.066 55.6371 447.997 60.0551V91.838C448.063 96.256 444.535 99.8911 440.116 99.9571C435.698 100.023 432.063 96.4941 431.997 92.0761C431.996 91.9961 431.996 91.918 431.997 91.838V60.0551C431.928 55.6371 435.453 51.9981 439.872 51.9301C439.955 51.9281 440.038 51.9281 440.122 51.9301Z" fill="#FFD700"/>
<path d="M408.122 19.9301C412.54 19.9981 416.066 23.6361 415.997 28.0551V123.838C416.051 128.256 412.513 131.883 408.095 131.936C403.677 131.991 400.051 128.454 399.997 124.034C399.996 123.97 399.996 123.903 399.997 123.839V28.0561C399.928 23.6381 403.453 20.0001 407.872 19.9311C407.955 19.9291 408.038 19.9291 408.122 19.9301Z" fill="#FFD700"/>
<path d="M110.901 71.864C106.527 72.489 103.488 76.5419 104.113 80.9169C104.155 81.2099 104.213 81.499 104.287 81.786L120.232 149.817C120.557 151.292 121.293 152.643 122.355 153.717L168.654 200.016L216.135 421.59C216.977 425.928 221.176 428.762 225.514 427.92C228.717 427.297 231.222 424.793 231.843 421.59L279.324 200.016L325.623 153.717C326.687 152.645 327.425 151.291 327.752 149.817L343.815 81.786C344.868 77.491 342.239 73.155 337.944 72.102C333.649 71.049 329.313 73.678 328.261 77.973C328.248 78.024 328.236 78.077 328.225 78.127L312.635 144.033L266.335 190.332C265.211 191.422 264.43 192.816 264.091 194.346L223.934 381.668L183.777 194.346C183.47 192.83 182.731 191.436 181.648 190.332L135.231 144.033L119.877 78.127C119.004 74 115.076 71.2599 110.9 71.8649L110.901 71.864Z" fill="#FFD700"/>
<path d="M221.198 118.932C226.374 118.932 230.442 123.069 230.442 128.246C230.442 133.422 226.372 137.49 221.198 137.49C216.022 137.49 211.885 133.422 211.885 128.246C211.885 123.069 216.021 118.932 221.198 118.932Z" fill="#AFA6A5"/>
<path d="M36.02 67.965V83.91H266.465V67.965H36.02Z" fill="#FFD700"/>
<path d="M279.292 67.965V83.91H301.465V67.965H279.292Z" fill="#FFD700"/>
</g>
<defs>
<clipPath id="clip0_15_202">
<rect width="447.998" height="447.998" fill="white"/>
</clipPath>
</defs>
</svg>
