<svg width="64" height="64" viewBox="0 0 64 64" fill="none" xmlns="http://www.w3.org/2000/svg">
<path d="M32 7C18.193 7 7 18.193 7 32H57C57 18.193 45.807 7 32 7Z" fill="#FFD700"/>
<path d="M32 57C45.807 57 57 45.807 57 32H7C7 45.807 18.193 57 32 57Z" fill="#FFD700"/>
<path d="M58.818 41.969L56.489 33.106C56.846 32.136 57 31.093 57 30C57 27.25 55.814 24.792 53.87 23.141L52.366 17.607C52.179 16.673 51.359 16 50.405 16H44.684C43.731 16 42.91 16.673 42.723 17.608L42.205 19.196C42.112 19.664 41.702 20 41.225 20H22.826C22.349 20 21.939 19.664 21.846 19.196L21.328 17.608C21.141 16.673 20.32 16 19.366 16H13.645C12.692 16 11.871 16.673 11.684 17.608L10.18 23.142C8.237 24.792 7 27.25 7 30C7 31.093 7.205 32.136 7.562 33.106L5.233 41.969C4.656 44.032 5.451 46.949 7.579 48.234C9.781 49.563 13.321 49.121 14.999 46.724L18.601 41.578C19.568 43.598 21.626 45.001 24.011 45.001C26.617 45.001 28.835 43.328 29.661 41.001H34.388C35.214 43.328 37.432 45.001 40.038 45.001C42.423 45.001 44.481 43.599 45.448 41.578L49.05 46.724C50.728 49.121 54.268 49.563 56.47 48.234C58.6 46.949 59.281 43.875 58.818 41.969Z" fill="#3A3A3A"/>
<path d="M52.012 31.5C52.8404 31.5 53.512 30.8284 53.512 30C53.512 29.1716 52.8404 28.5 52.012 28.5C51.1836 28.5 50.512 29.1716 50.512 30C50.512 30.8284 51.1836 31.5 52.012 31.5Z" fill="#FFD700"/>
<path d="M48.012 27.5C48.8404 27.5 49.512 26.8284 49.512 26C49.512 25.1716 48.8404 24.5 48.012 24.5C47.1836 24.5 46.512 25.1716 46.512 26C46.512 26.8284 47.1836 27.5 48.012 27.5Z" fill="#FFD700"/>
<path d="M48.012 35.5C48.8404 35.5 49.512 34.8284 49.512 34C49.512 33.1716 48.8404 32.5 48.012 32.5C47.1836 32.5 46.512 33.1716 46.512 34C46.512 34.8284 47.1836 35.5 48.012 35.5Z" fill="#FFD700"/>
<path d="M44.012 31.5C44.8404 31.5 45.512 30.8284 45.512 30C45.512 29.1716 44.8404 28.5 44.012 28.5C43.1836 28.5 42.512 29.1716 42.512 30C42.512 30.8284 43.1836 31.5 44.012 31.5Z" fill="#FFD700"/>
<path d="M21.5 29.5V30.5C21.5 31.052 21.052 31.5 20.5 31.5H17.5V34.5C17.5 35.052 17.052 35.5 16.5 35.5H15.5C14.948 35.5 14.5 35.052 14.5 34.5V31.5H11.5C10.948 31.5 10.5 31.052 10.5 30.5V29.5C10.5 28.948 10.948 28.5 11.5 28.5H14.5V25.5C14.5 24.948 14.948 24.5 15.5 24.5H16.5C17.052 24.5 17.5 24.948 17.5 25.5V28.5H20.5C21.052 28.5 21.5 28.948 21.5 29.5ZM38 26C38 25.447 37.552 25 37 25H27C26.448 25 26 25.447 26 26C26 26.553 26.448 27 27 27H37C37.552 27 38 26.553 38 26Z" fill="#666666"/>
<path d="M24.012 35C21.803 35 20.012 36.791 20.012 39C20.012 41.209 21.803 43 24.012 43C26.221 43 28.012 41.209 28.012 39C28.012 36.791 26.221 35 24.012 35ZM58.818 41.969L56.489 33.106C56.846 32.136 57 31.093 57 30C57 27.25 55.814 24.792 53.87 23.141L52.366 17.607C52.179 16.673 51.359 16 50.405 16H44.684C43.731 16 42.91 16.673 42.723 17.608L42.205 19.196C42.112 19.664 41.702 20 41.225 20H32V25H37C37.552 25 38 25.447 38 26C38 26.553 37.552 27 37 27H32V41H34.389C35.215 43.327 37.433 45 40.039 45C42.424 45 44.482 43.598 45.449 41.577L49.051 46.723C50.729 49.12 54.269 49.562 56.471 48.233C58.6 46.949 59.281 43.75 58.818 41.969ZM48.012 23.5C49.391 23.5 50.512 24.622 50.512 26C50.512 27.378 49.391 28.5 48.012 28.5C46.634 28.5 45.512 27.378 45.512 26C45.512 24.622 46.633 23.5 48.012 23.5ZM40 43C37.791 43 36 41.209 36 39C36 36.791 37.816 35 40 35C42.184 35 44 36.791 44 39C44 41.209 42.209 43 40 43ZM44.012 32.5C42.633 32.5 41.512 31.378 41.512 30C41.512 28.622 42.633 27.5 44.012 27.5C45.391 27.5 46.512 28.622 46.512 30C46.512 31.378 45.39 32.5 44.012 32.5ZM48.012 36.5C46.634 36.5 45.512 35.378 45.512 34C45.512 32.622 46.633 31.5 48.012 31.5C49.391 31.5 50.512 32.622 50.512 34C50.512 35.378 49.39 36.5 48.012 36.5ZM52.012 32.5C50.634 32.5 49.512 31.378 49.512 30C49.512 28.622 50.634 27.5 52.012 27.5C53.391 27.5 54.512 28.622 54.512 30C54.512 31.378 53.39 32.5 52.012 32.5Z" fill="#4D4D4D"/>
</svg>
