<svg width="512" height="512" viewBox="0 0 512 512" fill="none" xmlns="http://www.w3.org/2000/svg">
<g clip-path="url(#clip0_0_1)">
<path d="M256 512C397.385 512 512 397.385 512 256C512 114.615 397.385 0 256 0C114.615 0 0 114.615 0 256C0 397.385 114.615 512 256 512Z" fill="#FFD700"/>
<path d="M300 340H212V376H300V340Z" fill="#E6E6E6"/>
<path d="M84 304V125.364C84 120.36 87.408 120 92.188 120H420.188C424.972 120 428 120.36 428 125.364V304H84Z" fill="black"/>
<path d="M84 304V333C84 337.78 87.408 344 92.188 344H420.188C424.972 344 428 337.78 428 333V304H84Z" fill="#F5F5F5"/>
<path d="M412 136H100V288H412V136Z" fill="#FFD464"/>
<path d="M328 384C328 379.584 324.416 376 320 376H192C187.584 376 184 379.584 184 384C184 388.416 187.584 392 192 392H320C324.416 392 328 388.416 328 384Z" fill="#F5F5F5"/>
<path d="M256.2 328C260.618 328 264.2 324.418 264.2 320C264.2 315.582 260.618 312 256.2 312C251.782 312 248.2 315.582 248.2 320C248.2 324.418 251.782 328 256.2 328Z" fill="#1E2C33"/>
<path d="M128 140H112V276H128V140Z" fill="#F5F5F5"/>
<path d="M119.9 153.156L121.756 152.796L116.34 148.452L118.068 155.176L119.164 153.632L120.612 155.884L121.348 155.408L119.92 153.188L119.9 153.156Z" fill="#242424"/>
<path d="M123.776 164.892H123.22V164.452C123.22 164.2 123.02 164.008 122.776 164.008H117.22C116.976 164.008 116.776 164.208 116.776 164.452V164.892H116.444C116.32 164.892 116.22 164.988 116.22 165.116C116.22 165.236 116.32 165.34 116.444 165.34H116.776V165.784C116.776 166.032 116.976 166.224 117.22 166.224H122.776C123.02 166.224 123.22 166.024 123.22 165.784V165.34H123.552V166.816L119.632 167.452C119.524 167.468 119.444 167.556 119.444 167.676V168.452H119.332C119.084 168.452 118.888 168.652 118.888 168.892V171.556C118.888 171.808 119.088 172 119.332 172H120C120.244 172 120.444 171.8 120.444 171.556V168.892C120.444 168.644 120.244 168.452 120 168.452H119.888V167.868L123.808 167.228C123.916 167.212 123.996 167.124 123.996 167.008V165.116C124 164.988 123.9 164.892 123.776 164.892Z" fill="#242424"/>
<path d="M119.004 182.084C119.064 182.068 119.12 182.056 119.18 182.036C119.384 181.988 119.608 181.884 119.84 181.736C120.172 181.532 120.504 181.256 120.816 180.944C122.136 179.624 123.112 177.516 122.992 177.388C122.872 177.272 120.8 178.204 119.444 179.564C119.128 179.88 118.848 180.216 118.636 180.556C118.5 180.78 118.404 180.98 118.352 181.172C118.332 181.24 118.316 181.308 118.304 181.376C116.776 181.452 117.448 183.048 116.592 183.564C117.184 183.564 118.2 183.556 118.6 183.156C118.992 182.764 119.04 182.348 119.004 182.084Z" fill="#242424"/>
<path d="M331.872 235.664C336.86 234.992 342.14 231.052 346.884 226.312C357.72 215.472 365.752 198.12 364.752 197.124C363.76 196.136 346.76 203.808 335.588 214.984C330.872 219.696 326.948 225.076 326.22 230.008L331.872 235.664Z" fill="#263740"/>
<path d="M330.408 221.004C328 224.256 326.4 227.364 326.22 230.008L331.872 235.664C334.556 235.516 337.66 233.912 340.892 231.488L330.408 221.004Z" fill="#E6E6E6"/>
<path d="M331.872 235.664L326.22 230.008C313.488 230.48 319.072 243.756 312 248C316.884 247.996 325.236 247.96 328.536 244.66C331.832 241.36 332.176 237.856 331.872 235.664Z" fill="#FFD464"/>
<path d="M160 172C167.14 169.404 175.044 168.508 182.844 169.508C190.64 170.552 198.18 173.44 204.936 177.416C218.568 185.368 229.308 196.736 239.608 207.756C244.684 213.368 249.692 218.972 254.836 224.336C259.908 229.768 265.264 234.828 270.992 239.284C276.764 243.632 283.092 247.252 290.116 248.86C297.116 250.592 304.68 250.02 312 248.008C305.352 251.668 297.436 253.508 289.496 252.74C281.548 251.94 273.996 248.672 267.428 244.408C254.184 235.796 243.996 224.128 233.724 213.172C223.588 202.08 213.54 191.04 201.616 182.676C195.636 178.576 189.148 175.196 182.096 173.352C175.064 171.388 167.544 171.12 160 172Z" fill="#263740"/>
</g>
<defs>
<clipPath id="clip0_0_1">
<rect width="512" height="512" fill="white"/>
</clipPath>
</defs>
</svg>
