<svg width="509" height="509" viewBox="0 0 509 509" fill="none" xmlns="http://www.w3.org/2000/svg">
<g clip-path="url(#clip0_12_2)">
<path d="M254.306 471.314C374.156 471.314 471.313 374.157 471.313 254.307C471.313 134.457 374.156 37.3 254.306 37.3C134.456 37.3 37.299 134.457 37.299 254.307C37.299 374.157 134.456 471.314 254.306 471.314Z" fill="#FFD700"/>
<path d="M471.313 243.796H247.185C241.082 243.796 236.335 239.049 236.335 232.946V37.979C242.438 37.64 248.542 37.301 254.645 37.301C370.947 37.301 465.887 128.85 471.313 243.796Z" fill="#E6E9EE"/>
<path d="M469.278 223.452H256.679V37.301C365.183 38.318 454.698 119.017 469.278 223.452Z" fill="black"/>
<path d="M279.36 187.908L279.362 187.907C287.895 181.382 294.946 180.998 299.835 182.189C302.291 182.788 304.221 183.789 305.536 184.64C306.193 185.065 306.695 185.452 307.031 185.73C307.109 185.795 307.179 185.855 307.239 185.907C305.666 188.46 298.267 199.403 280.869 200.215L280.234 193.229L280.182 192.655L279.621 192.787C278.185 193.125 276.835 193.395 275.768 193.497C275.233 193.549 274.79 193.556 274.454 193.517C274.098 193.476 273.949 193.392 273.902 193.345C273.902 193.345 273.902 193.345 273.902 193.345C273.898 193.343 273.848 193.314 273.909 193.12C273.979 192.895 274.177 192.554 274.586 192.073C275.397 191.12 276.908 189.769 279.36 187.908L279.36 187.908Z" fill="#FFD05B" stroke="black"/>
<path d="M190.399 490.98C190.399 494.64 189.481 498.981 188.023 502.397C187.294 504.106 186.441 505.556 185.522 506.57C184.597 507.591 183.662 508.112 182.761 508.112C181.86 508.112 180.925 507.591 180 506.57C179.081 505.556 178.228 504.106 177.499 502.397C176.041 498.981 175.123 494.64 175.123 490.98C175.123 487.327 176.036 485.107 177.387 483.794C178.741 482.479 180.625 481.986 182.761 481.986C184.897 481.986 186.781 482.48 188.135 483.795C189.486 485.107 190.399 487.327 190.399 490.98Z" fill="black" stroke="#FFD700"/>
<path d="M189.742 313.789L189.744 313.796L189.747 313.803C198.199 339.158 203.277 376.714 196.509 417.997C193.286 437.335 190.912 455.483 189.343 468.797C188.558 475.454 187.975 480.903 187.588 484.688C187.395 486.581 187.25 488.057 187.154 489.061C187.106 489.563 187.07 489.946 187.046 490.205L187.019 490.497L187.012 490.571L187.011 490.587C186.846 491.896 186.266 494.223 185.433 496.304C185.017 497.346 184.545 498.305 184.044 499.036C183.569 499.73 183.117 500.146 182.721 500.299C181.78 500.119 180.755 499.335 179.94 497.783C179.098 496.179 178.514 493.806 178.514 490.641V490.619L178.512 490.596L178.014 490.641C178.512 490.596 178.512 490.596 178.512 490.596L178.512 490.595L178.511 490.59L178.51 490.571L178.503 490.497L178.476 490.205C178.452 489.946 178.416 489.563 178.368 489.061C178.272 488.057 178.127 486.581 177.934 484.688C177.547 480.903 176.964 475.454 176.179 468.797C174.61 455.483 172.236 437.334 169.013 417.997C162.245 376.714 167.323 339.158 175.775 313.803L175.778 313.796L175.78 313.789C176.762 310.519 179.012 307.673 182.468 307.024H182.761H183.054C186.51 307.674 188.762 310.519 189.742 313.789Z" fill="#FFD05B" stroke="black"/>
<path d="M137.326 508.112C136.425 508.112 135.49 507.591 134.565 506.57C133.646 505.556 132.793 504.106 132.064 502.397C130.606 498.981 129.688 494.64 129.688 490.98C129.688 487.327 130.601 485.107 131.952 483.795C133.306 482.48 135.19 481.986 137.326 481.986C139.462 481.986 141.346 482.479 142.7 483.794C144.051 485.107 144.964 487.327 144.964 490.98C144.964 494.64 144.046 498.981 142.588 502.397C141.859 504.106 141.006 505.556 140.087 506.57C139.162 507.591 138.227 508.112 137.326 508.112Z" fill="black" stroke="#FFD700"/>
<path d="M130.34 313.803L130.343 313.796L130.345 313.789C131.325 310.519 133.577 307.674 137.033 307.024H137.326H137.619C141.075 307.673 143.325 310.519 144.307 313.789L144.309 313.796L144.312 313.803C152.764 339.158 157.842 376.714 151.074 417.997C147.851 437.334 145.477 455.483 143.908 468.797C143.123 475.454 142.54 480.903 142.153 484.688C141.96 486.581 141.815 488.057 141.719 489.061C141.671 489.563 141.635 489.946 141.611 490.205L141.584 490.497L141.577 490.571L141.576 490.59L141.575 490.595L141.575 490.596C141.575 490.596 141.575 490.596 141.664 490.604L141.575 490.596L141.573 490.619V490.641C141.573 493.806 140.989 496.179 140.147 497.783C139.332 499.335 138.307 500.119 137.366 500.299C136.97 500.146 136.518 499.73 136.043 499.036C135.542 498.305 135.07 497.346 134.654 496.304C133.821 494.223 133.241 491.896 133.076 490.587L133.075 490.571L133.068 490.497L133.041 490.205C133.017 489.946 132.981 489.563 132.933 489.061C132.837 488.057 132.692 486.581 132.499 484.688C132.112 480.903 131.529 475.454 130.744 468.797C129.175 455.483 126.801 437.334 123.578 417.997L123.578 417.994C116.472 376.716 121.887 339.162 130.34 313.803Z" fill="#FFD05B" stroke="black"/>
<path d="M94.262 264.139C93.7685 264.219 93.7685 264.219 93.7685 264.22L93.7686 264.22L93.7689 264.222L93.7702 264.23L93.7753 264.261L93.7951 264.383C93.8124 264.491 93.8379 264.649 93.8703 264.851C93.9352 265.255 94.0278 265.836 94.139 266.543C94.3614 267.956 94.6579 269.872 94.9543 271.883C95.5508 275.93 96.136 280.291 96.136 281.771C96.136 281.971 96.0249 282.299 95.7835 282.701C95.5608 283.072 95.2625 283.449 94.9617 283.756C93.2475 284.863 90.9898 284.04 90.3642 282.068L90.6902 279.46L90.6909 279.453C90.8783 277.767 90.2237 276.097 89.1138 274.941C88.0003 273.781 86.3889 273.101 84.6606 273.485C83.7965 273.677 83.1159 274.092 82.6093 274.689C82.1083 275.28 81.7984 276.024 81.6251 276.847C81.281 278.483 81.4556 280.534 81.862 282.63C82.566 286.26 84.0052 290.208 84.925 292.73C85.0694 293.127 85.2011 293.488 85.3151 293.807L85.3358 293.865L85.37 293.916C85.8659 294.66 85.6759 295.755 84.7544 296.676L84.7543 296.677C84.0148 297.417 83.0729 297.696 82.2234 297.555C81.3826 297.414 80.5895 296.855 80.1449 295.822C74.7559 282.346 74.4253 271.584 75.4318 263.866L75.5054 263.301H75.0636C73.6194 241.868 76.7284 212.581 80.2207 188.557C81.9785 176.464 83.8317 165.715 85.2455 157.989C85.9523 154.127 86.5493 151.02 86.9694 148.88C87.1795 147.81 87.3454 146.981 87.4587 146.42C87.5153 146.139 87.5589 145.926 87.5882 145.783L87.6214 145.621L87.6298 145.58L87.6319 145.57L87.6324 145.567C87.6325 145.567 87.6326 145.566 87.143 145.465L87.6326 145.566L87.6343 145.558L87.6357 145.55C90.6709 128.012 97.4898 116.932 105.36 109.983C113.235 103.029 122.204 100.176 129.595 99.1684L129.598 99.168C132.004 98.8243 135.928 97.8848 139.236 96.9942C140.893 96.548 142.405 96.1115 143.505 95.7643C144.054 95.5911 144.507 95.4379 144.827 95.3153C144.985 95.2548 145.124 95.1968 145.228 95.1435C145.278 95.1181 145.34 95.084 145.396 95.0414C145.423 95.0207 145.467 94.9846 145.508 94.9324C145.513 94.9261 145.519 94.9184 145.525 94.9093C145.545 94.8895 145.57 94.864 145.6 94.833C145.677 94.7539 145.788 94.6393 145.922 94.4967C146.191 94.2118 146.557 93.8137 146.945 93.361C147.702 92.4778 148.599 91.3237 148.975 90.3915C151.197 85.4322 152.562 80.2266 153.37 76.2672C153.775 74.2847 154.042 72.6108 154.207 71.4314C154.29 70.8416 154.348 70.3753 154.384 70.0557C154.386 70.0412 154.388 70.0269 154.389 70.013H165.71C165.713 70.0311 165.715 70.0498 165.718 70.069C165.764 70.3879 165.833 70.8534 165.929 71.4423C166.121 72.62 166.419 74.2919 166.845 76.2722C167.696 80.2292 169.059 85.4306 171.109 90.3843C171.483 91.3178 172.383 92.4755 173.142 93.361C173.53 93.8137 173.896 94.2118 174.165 94.4967C174.299 94.6393 174.41 94.7539 174.487 94.833C174.504 94.851 174.52 94.867 174.534 94.8813C174.559 94.9282 174.587 94.9653 174.609 94.9917C174.668 95.0639 174.738 95.1199 174.796 95.1614C174.915 95.2456 175.066 95.3252 175.229 95.4C175.56 95.552 176.021 95.7232 176.57 95.905C177.671 96.2704 179.177 96.6974 180.813 97.1224C184.083 97.9719 187.917 98.8244 190.145 99.1672L190.145 99.1673L190.153 99.1684C197.544 100.176 206.514 103.029 214.433 109.942C222.346 116.851 229.249 127.849 232.452 145.217L232.452 145.217L232.455 145.229L232.944 145.126C232.455 145.229 232.455 145.229 232.455 145.229L232.455 145.23L232.455 145.232L232.458 145.243L232.466 145.285L232.501 145.451C232.531 145.598 232.577 145.817 232.636 146.105C232.753 146.681 232.925 147.531 233.142 148.63C233.576 150.826 234.19 154.013 234.91 157.973C236.351 165.893 238.214 176.906 239.909 189.273L239.974 189.749L240.452 189.703L282.379 185.678L285.288 201.514C284.621 201.927 283.648 202.353 282.418 202.78C281.025 203.264 279.337 203.74 277.462 204.199C273.712 205.116 269.244 205.962 264.947 206.681C260.652 207.401 256.535 207.993 253.492 208.406C251.971 208.613 250.718 208.774 249.846 208.884C249.41 208.939 249.069 208.981 248.837 209.009L248.573 209.041L248.506 209.049L248.489 209.051L248.485 209.051L248.484 209.051C248.483 209.051 248.483 209.051 248.542 209.548L248.483 209.051L248.454 209.055L248.426 209.062C236.445 211.93 229.218 210.888 224.883 208.435C220.566 205.991 219.013 202.086 218.519 198.959L218.513 198.924L218.503 198.891L208.331 165.662L207.359 165.732C206.024 174.401 205.017 183.404 204.66 192.095H114.41C114.065 183.1 113.379 174.41 111.707 165.714L111.441 164.329L110.775 165.572C106.928 172.753 103.949 182.512 101.641 193.081C99.3314 203.658 97.6866 215.078 96.5199 225.599C95.3531 236.122 94.6638 245.752 94.2661 252.752C94.0672 256.252 93.9413 259.094 93.865 261.063C93.8269 262.047 93.8012 262.812 93.785 263.332C93.7769 263.592 93.7712 263.79 93.7675 263.924L93.7635 264.075L93.7625 264.114L93.7622 264.123L93.7622 264.126C93.7622 264.127 93.7621 264.127 94.262 264.139ZM94.262 264.139L93.7621 264.127L93.761 264.173L93.7685 264.219L94.262 264.139Z" fill="#FFD05B" stroke="black"/>
<path d="M191.198 59.4015C192.741 56.405 192.777 53.3504 191.278 52.5787C189.78 51.8071 187.314 53.6106 185.771 56.6071C184.228 59.6035 184.192 62.6582 185.69 63.4299C187.189 64.2015 189.655 62.398 191.198 59.4015Z" fill="#FFD05B"/>
<path d="M129.517 59.2609C131.06 62.2574 133.525 64.0609 135.024 63.2893C136.522 62.5176 136.486 59.463 134.943 56.4665C133.4 53.4701 130.934 51.6665 129.436 52.4382C127.937 53.2098 127.974 56.2645 129.517 59.2609Z" fill="#FFD05B"/>
<path d="M170.894 88.84C167.503 91.214 163.773 92.57 160.044 92.57C156.314 92.57 152.584 91.214 149.194 88.84C152.924 79.346 153.941 69.174 153.941 69.174H166.148C166.147 69.173 167.164 79.346 170.894 88.84Z" fill="#F9B54C"/>
<path d="M188.365 44.421C188.365 54.84 185.169 65.8534 179.963 74.2506C174.747 82.6641 167.59 88.34 159.705 88.34C151.823 88.34 144.666 82.5829 139.447 74.1245C134.24 65.6835 131.045 54.6695 131.045 44.421C131.045 34.1853 134.231 26.4372 139.377 21.2496C144.525 16.0604 151.679 13.387 159.705 13.387C167.735 13.387 174.889 15.9786 180.035 21.1243C185.178 26.268 188.365 34.0144 188.365 44.421Z" fill="#FFD05B" stroke="black"/>
<path d="M214.634 394.683C217.686 364.166 219.381 318.392 219.381 302.794C219.381 284.145 217.007 266.513 212.6 251.255C204.462 223.112 202.767 193.613 208.192 165.13C208.192 165.13 208.192 165.13 208.192 164.791C199.037 149.872 201.75 101.384 201.75 101.384C198.02 100.028 194.29 99.01 190.9 98.332L190.222 116.981C189.544 133.256 176.32 145.802 160.045 145.802C143.77 145.802 130.546 132.917 129.868 116.981L129.19 98.332C125.799 99.01 122.069 99.688 118.34 101.384C118.34 101.384 120.714 149.871 112.237 164.791C112.237 164.791 112.237 164.791 112.237 165.13C117.323 193.612 115.967 223.111 107.829 251.255C103.421 266.513 101.048 284.145 101.048 302.794C101.048 318.052 102.743 363.827 105.795 394.683H214.634Z" fill="black"/>
<path d="M172.159 1.51158L172.17 1.51379L172.182 1.51537L172.182 1.51542L172.182 1.51543L172.186 1.51589L172.202 1.51835C172.218 1.52068 172.242 1.52444 172.274 1.52984C172.339 1.54063 172.438 1.55797 172.566 1.58353C172.824 1.63465 173.203 1.71861 173.68 1.84876C174.635 2.1091 175.982 2.55382 177.535 3.28916C180.642 4.75946 184.574 7.38979 187.863 12.0322C194.299 21.1153 198.37 38.0477 188.666 69.4375L187.662 63.6624L186.691 63.6044C186.69 63.6042 186.69 63.6042 186.69 63.6042L186.69 63.6044L186.69 63.6051L186.688 63.6109L186.68 63.6373C186.672 63.6615 186.66 63.699 186.643 63.7498C186.61 63.8513 186.557 64.0058 186.482 64.2134C186.331 64.6286 186.091 65.256 185.734 66.0956C185.172 67.4185 184.321 69.2683 183.076 71.6449C183.134 70.616 183.196 69.2819 183.24 67.7195C183.346 63.9308 183.346 58.7941 182.921 53.4092C182.495 48.0285 181.643 42.3779 180.035 37.5709C178.433 32.7781 176.049 28.7359 172.499 26.6946L171.598 26.1762L171.756 27.2027L171.756 27.203L171.756 27.2034L171.756 27.204L171.756 27.2046L171.758 27.2178C171.759 27.2307 171.762 27.2518 171.765 27.281C171.771 27.3392 171.779 27.4293 171.785 27.549C171.797 27.7885 171.803 28.1463 171.772 28.6049C171.711 29.5217 171.508 30.8417 170.932 32.4248C169.848 35.4081 167.43 39.3563 162.092 43.3096L163.249 36.3652L162.291 36.1084C162.288 36.1071 162.288 36.107 162.288 36.107L162.288 36.1071L162.288 36.1074L162.287 36.1107L162.279 36.1294C162.272 36.1469 162.261 36.1746 162.245 36.2117C162.214 36.2861 162.165 36.3987 162.095 36.5456C161.956 36.8394 161.735 37.2704 161.415 37.807C160.775 38.8802 159.738 40.3758 158.155 42.0418C155.115 45.2414 150.054 49.0811 141.912 51.7604L143.553 47.6577L144.202 46.0359L142.793 47.0688L143.089 47.472C142.793 47.0688 142.793 47.069 142.793 47.0693L142.792 47.07L142.789 47.0722L142.779 47.0798L142.742 47.1071C142.711 47.1309 142.667 47.1654 142.61 47.2108C142.496 47.3014 142.332 47.4352 142.131 47.6109C141.728 47.9623 141.17 48.4823 140.544 49.1625C139.293 50.5215 137.762 52.5285 136.653 55.1159C134.606 59.8941 134.029 66.5797 139.128 74.6946C138.461 74.1782 137.675 73.5247 136.825 72.7279C134.281 70.3462 131.157 66.6892 128.837 61.5905C124.211 51.4204 122.735 35.3981 135.728 12.1126L136.641 10.4764L135.034 11.4402L133.652 12.2692C133.891 11.9777 134.165 11.6601 134.474 11.3222C135.95 9.70554 138.223 7.62983 141.397 5.72976C147.735 1.93548 157.699 -1.17858 172.159 1.51158Z" fill="black" stroke="#FFD700"/>
<path d="M316.695 142.413C310.592 144.108 304.149 143.769 298.385 141.057H298.046C298.046 141.057 298.046 140.718 298.385 140.04C300.419 136.31 301.776 132.241 301.776 128.172C301.776 126.816 301.776 124.781 300.759 123.425C298.725 120.034 294.317 119.695 292.621 119.695C291.943 119.695 290.247 119.695 289.23 120.712C288.552 121.39 288.552 122.068 288.552 122.746C288.552 123.763 289.23 124.441 290.247 124.441C290.925 124.441 291.603 123.763 291.942 123.085C291.942 123.085 292.281 123.085 292.62 123.085C295.333 123.424 297.367 124.102 298.045 125.119C298.723 126.136 298.723 127.153 298.723 128.171C298.723 131.901 297.706 135.292 295.671 138.343C295.332 139.021 293.976 141.056 295.332 142.751C296.01 143.429 296.688 143.768 297.027 144.107C300.757 145.802 305.165 146.82 309.573 146.82C312.286 146.82 315.337 146.481 318.05 145.464C319.067 145.125 319.406 144.108 319.067 143.43C318.73 142.752 317.713 142.074 316.695 142.413Z" fill="white"/>
<path d="M347.551 141.057C345.517 139.701 343.821 137.327 342.465 134.954L341.787 133.598C341.787 133.259 341.448 133.259 341.448 132.92C343.143 130.207 344.5 127.495 346.195 124.104C346.534 123.087 346.195 122.409 345.517 121.73C344.5 121.391 343.822 121.73 343.143 122.408C341.787 125.121 340.769 127.494 339.413 129.529C337.718 127.155 335.683 125.121 333.649 123.087C332.971 122.409 331.954 122.409 331.275 123.087C330.596 123.765 330.597 124.782 331.275 125.461C333.649 127.495 335.683 129.869 337.378 132.582C337.039 132.921 337.039 133.26 336.7 133.26C333.648 137.668 330.597 140.041 327.545 140.381C326.528 140.381 325.85 141.398 326.189 142.415C326.189 143.432 326.867 143.771 327.884 143.771C327.884 143.771 327.884 143.771 328.223 143.771C332.292 143.432 336.022 140.719 339.751 135.633L340.09 136.311C341.785 139.024 343.481 141.736 346.193 143.432C346.532 143.432 346.871 143.771 347.21 143.771C347.888 143.771 348.227 143.432 348.566 143.093C348.568 142.752 348.229 141.396 347.551 141.057Z" fill="white"/>
<path d="M390.952 143.77C387.222 143.092 383.153 142.753 379.084 143.092H378.067C376.711 143.092 375.354 143.431 374.337 143.092C372.981 142.753 371.963 142.414 371.285 141.397C370.268 140.041 370.946 137.667 371.624 135.294C372.641 132.581 373.658 129.191 371.963 126.478C370.268 124.104 367.555 123.426 365.182 122.748C363.826 122.409 362.469 122.07 361.452 121.392C360.774 121.053 359.757 121.053 359.079 122.07C358.74 122.748 358.74 123.765 359.757 124.444C361.113 125.122 362.809 125.8 364.165 126.139C366.199 126.478 367.895 127.156 368.912 128.513C369.929 130.208 369.251 132.243 368.234 134.616C367.217 137.329 366.2 140.719 368.234 143.771C369.251 145.466 371.286 146.484 373.659 146.823C375.354 147.162 376.711 146.823 378.067 146.823H379.084C382.814 146.484 386.544 146.823 389.934 147.501H390.273C390.951 147.501 391.629 146.823 391.968 146.145C392.309 144.787 391.63 144.109 390.952 143.77Z" fill="white"/>
<path d="M389.935 128.172C395.699 129.528 401.803 129.867 407.906 129.867C408.584 129.867 409.262 129.867 409.94 129.867C410.957 129.867 411.635 129.189 411.635 128.172C411.635 127.155 410.957 126.477 409.94 126.477C403.498 126.477 397.055 126.138 390.613 124.782C389.596 124.443 388.918 125.121 388.579 126.138C388.579 127.155 388.918 127.833 389.935 128.172Z" fill="white"/>
<path d="M416.383 134.275C407.906 133.936 399.768 134.275 391.292 134.614C390.275 134.614 389.597 135.631 389.597 136.309C389.597 137.326 390.275 138.004 391.292 138.004C399.43 137.665 407.907 137.326 416.044 137.665C417.061 137.665 417.739 136.987 417.739 135.97C418.078 135.293 417.4 134.275 416.383 134.275Z" fill="white"/>
<path d="M294.995 189.544C293.978 188.188 293.978 186.492 295.334 185.814L389.257 122.407L298.725 190.561C297.707 191.24 296.012 190.901 294.995 189.544Z" fill="black"/>
</g>
<defs>
<clipPath id="clip0_12_2">
<rect width="508.612" height="508.612" fill="white"/>
</clipPath>
</defs>
</svg>
