<svg width="100" height="100" viewBox="0 0 100 100" fill="none" xmlns="http://www.w3.org/2000/svg">
<g clip-path="url(#clip0_15_248)">
<path d="M4 0H96C97.0609 0 98.0783 0.421427 98.8284 1.17157C99.5786 1.92172 100 2.93913 100 4V96C100 97.0609 99.5786 98.0783 98.8284 98.8284C98.0783 99.5786 97.0609 100 96 100H4C2.93913 100 1.92172 99.5786 1.17157 98.8284C0.421427 98.0783 0 97.0609 0 96V4C0 2.93913 0.421427 1.92172 1.17157 1.17157C1.92172 0.421427 2.93913 0 4 0V0Z" fill="#EBEDEE"/>
<path d="M10 20H90V90H10V20Z" fill="white"/>
<path d="M13 7C13.7956 7 14.5587 7.31607 15.1213 7.87868C15.6839 8.44129 16 9.20435 16 10C16 10.7956 15.6839 11.5587 15.1213 12.1213C14.5587 12.6839 13.7956 13 13 13C12.2044 13 11.4413 12.6839 10.8787 12.1213C10.3161 11.5587 10 10.7956 10 10C10 9.20435 10.3161 8.44129 10.8787 7.87868C11.4413 7.31607 12.2044 7 13 7V7Z" fill="#FFD700"/>
<path d="M23 7C23.7956 7 24.5587 7.31607 25.1213 7.87868C25.6839 8.44129 26 9.20435 26 10C26 10.7956 25.6839 11.5587 25.1213 12.1213C24.5587 12.6839 23.7956 13 23 13C22.2044 13 21.4413 12.6839 20.8787 12.1213C20.3161 11.5587 20 10.7956 20 10C20 9.20435 20.3161 8.44129 20.8787 7.87868C21.4413 7.31607 22.2044 7 23 7Z" fill="#FFD700"/>
<path d="M33 7C33.7956 7 34.5587 7.31607 35.1213 7.87868C35.6839 8.44129 36 9.20435 36 10C36 10.7956 35.6839 11.5587 35.1213 12.1213C34.5587 12.6839 33.7956 13 33 13C32.2044 13 31.4413 12.6839 30.8787 12.1213C30.3161 11.5587 30 10.7956 30 10C30 9.20435 30.3161 8.44129 30.8787 7.87868C31.4413 7.31607 32.2044 7 33 7Z" fill="#FFD700"/>
<path d="M45 7H90V13H45V7Z" fill="white"/>
<path d="M20 45V50H45V45H20ZM20 60H45V55H20V60ZM20 70H45V65H20V70ZM20 80H45V75H20V80Z" fill="#BDC3C7"/>
<path d="M20 30H80V40H20V30Z" fill="#FFD700"/>
<path d="M50 45V60H80V45H50ZM50 80H80V65H50V80Z" fill="#BDC3C7"/>
</g>
<defs>
<clipPath id="clip0_15_248">
<rect width="100" height="100" fill="white"/>
</clipPath>
</defs>
</svg>
