<svg width="512" height="512" viewBox="0 0 512 512" fill="none" xmlns="http://www.w3.org/2000/svg">
<g clip-path="url(#clip0_15_258)">
<path d="M256 512C397.385 512 512 397.385 512 256C512 114.615 397.385 0 256 0C114.615 0 0 114.615 0 256C0 397.385 114.615 512 256 512Z" fill="#FFD700"/>
<path d="M256 436.017C356.673 436.017 438.284 429.583 438.284 421.646C438.284 413.709 356.673 407.275 256 407.275C155.327 407.275 73.716 413.709 73.716 421.646C73.716 429.583 155.327 436.017 256 436.017Z" fill="#EDB937"/>
<path d="M65.982 67.223H446.019C458.505 67.223 468.721 77.439 468.721 89.925V324.032H43.282V89.924C43.282 77.438 53.498 67.222 65.984 67.222H65.982V67.223Z" fill="black"/>
<path d="M58.694 308.617H453.303V89.924C453.303 85.945 449.994 82.636 446.018 82.636H65.982C62.005 82.636 58.697 85.945 58.697 89.924V308.617H58.694Z" fill="white"/>
<path d="M468.718 324.031V348.858C468.718 361.346 457.458 371.56 443.694 371.56H68.307C54.543 371.56 43.283 361.346 43.283 348.858V324.031H468.72H468.718Z" fill="white"/>
<path d="M256 354.619C260.317 354.619 263.816 351.12 263.816 346.803C263.816 342.486 260.317 338.987 256 338.987C251.683 338.987 248.184 342.486 248.184 346.803C248.184 351.12 251.683 354.619 256 354.619Z" fill="#B6B6B8"/>
<path d="M305.066 407.273L341.161 418.839H170.836L199.959 407.273V371.56H305.064V407.273H305.066Z" fill="#C2C2C4"/>
<path d="M199.961 407.273H305.067L341.162 418.839V423.819H256.002H170.838V418.839L199.961 407.273Z" fill="#ECF0F1"/>
<path d="M199.961 371.559H305.067V407.272L199.961 371.559Z" fill="#919191"/>
<path d="M116.591 97.5H75.849V104.516H116.591V97.5Z" fill="#FAD24D"/>
<path d="M193.572 97.5H121.303V104.516H193.572V97.5Z" fill="#FFF500"/>
<path d="M258.585 97.5H197.055V104.516H258.585V97.5Z" fill="#FAD24D"/>
<path d="M140.264 126.363H118.648V133.379H140.264V126.363Z" fill="#FAD24D"/>
<path d="M181.106 126.363H142.761V133.379H181.106V126.363Z" fill="#FFF500"/>
<path d="M215.595 126.363H182.953V133.379H215.595V126.363Z" fill="#FFD700"/>
<path d="M113.568 138.689H75.592V145.705H113.568V138.689Z" fill="#FFF500"/>
<path d="M185.298 138.689H117.95V145.705H185.298V138.689Z" fill="#FAD24D"/>
<path d="M154.109 153.42H116.133V160.436H154.109V153.42Z" fill="#EDB937"/>
<path d="M225.838 153.42H158.49V160.436H225.838V153.42Z" fill="#FFF500"/>
<path d="M120.335 167.503H82.359V174.519H120.335V167.503Z" fill="#FAD24D"/>
<path d="M152.532 167.503H125.355V174.519H152.532V167.503Z" fill="#FFF500"/>
<path d="M235.241 167.503H158.93V174.519H235.241V167.503Z" fill="#FAD24D"/>
<path d="M268.007 167.503H240.83V174.519H268.007V167.503Z" fill="#FFD700"/>
<path d="M175.867 182.234H74.245V189.25H175.867V182.234Z" fill="#FFF500"/>
<path d="M207.475 182.234H180.298V189.25H207.475V182.234Z" fill="#FAD24D"/>
<path d="M249.323 182.234H211.347V189.25H249.323V182.234Z" fill="#FFD700"/>
<path d="M123.182 111.093H120.375V119.509H123.182V111.093Z" fill="white"/>
<path d="M196 138.689H193.193V147.105H196V138.689Z" fill="white"/>
<path d="M116.591 202.994H75.849V210.01H116.591V202.994Z" fill="#EDB937"/>
<path d="M193.572 202.994H121.303V210.01H193.572V202.994Z" fill="#FFF500"/>
<path d="M258.585 202.994H197.055V210.01H258.585V202.994Z" fill="#FAD24D"/>
<path d="M140.264 231.847H118.648V238.863H140.264V231.847Z" fill="#FAD24D"/>
<path d="M181.106 231.847H142.761V238.863H181.106V231.847Z" fill="#FFF500"/>
<path d="M215.595 231.847H182.953V238.863H215.595V231.847Z" fill="#FFD700"/>
<path d="M113.568 244.183H75.592V251.199H113.568V244.183Z" fill="#FFF500"/>
<path d="M185.298 244.183H117.95V251.199H185.298V244.183Z" fill="#FAD24D"/>
<path d="M123.182 216.577H120.375V224.993H123.182V216.577Z" fill="white"/>
<path d="M196 244.183H193.193V252.599H196V244.183Z" fill="white"/>
<path d="M437.575 97.5H290.223V131.484H437.575V97.5Z" fill="#DCE3DB"/>
<path d="M290.221 136.298H360.399V181.15H290.221V136.298Z" fill="#DCE3DB"/>
<path d="M367.398 136.298H437.576V181.15H367.398V136.298Z" fill="#DCE3DB"/>
<path d="M290.423 187.581H437.376V189.753H290.423V187.581ZM290.423 208.115H386.957V210.287H290.423V208.115ZM290.423 201.269H437.376V203.441H290.423V201.269ZM290.423 194.426H437.376V196.598H290.423V194.426Z" fill="#DCE3DB"/>
<path d="M290.048 215.622H333.841V259.042H290.048V215.622ZM393.961 215.622H437.756V259.042H393.961V215.622ZM342.005 215.622H385.798V259.042H342.005V215.622Z" fill="#DCE3DB"/>
<path d="M290.423 265.088H437.376V267.26H290.423V265.088ZM290.423 285.622H386.957V287.794H290.423V285.622ZM290.423 278.777H437.376V280.949H290.423V278.777ZM290.423 271.934H437.376V274.106H290.423V271.934Z" fill="#DCE3DB"/>
</g>
<defs>
<clipPath id="clip0_15_258">
<rect width="512" height="512" fill="white"/>
</clipPath>
</defs>
</svg>
