<svg width="513" height="513" viewBox="0 0 513 513" fill="none" xmlns="http://www.w3.org/2000/svg">
<g clip-path="url(#clip0_15_327)">
<path d="M340.497 503.501H35.004V8.56799H274.791L303.804 42.701L340.497 85.368V503.501V503.501Z" fill="#FFD700"/>
<path d="M8.55101 503.501H35.004V8.56799H8.55101V503.501Z" fill="white"/>
<path d="M324.284 42.701L290.151 8.56799H274.791L303.804 42.701L340.497 85.368V503.501H366.95V85.368L324.284 42.701Z" fill="#FD9808"/>
<path d="M290.151 85.368H366.951L332.818 51.235L290.151 8.56799V85.368Z" fill="#FCC309"/>
<path d="M494.951 51.235H460.818V21.368C460.818 14.541 466.791 8.56799 473.618 8.56799H482.151C488.978 8.56799 494.951 14.541 494.951 21.368V51.235V51.235Z" fill="#FCC309"/>
<path d="M452.284 435.235H503.484V51.235H452.284V435.235Z" fill="#FFD700"/>
<path d="M486.417 486.435H469.35L452.283 435.235H503.483L486.417 486.435Z" fill="#FFD700"/>
<path d="M452.284 435.235H503.484V298.701H452.284V435.235Z" fill="#FCC309"/>
<path d="M366.951 512.035H8.55101C3.43101 512.035 0.0180054 508.622 0.0180054 503.502V8.568C0.0180054 3.448 3.43101 0.0350037 8.55101 0.0350037H290.151C292.711 0.0350037 294.418 0.888004 296.124 2.595L372.924 79.395C374.631 81.102 375.484 82.808 375.484 85.368V503.501C375.484 508.621 372.071 512.035 366.951 512.035ZM17.084 494.968H358.417V88.781L286.737 17.101H17.084V494.968Z" fill="black"/>
<path d="M366.951 93.901H290.151C285.031 93.901 281.618 90.488 281.618 85.368V8.56799C281.618 5.15499 283.325 1.74099 286.738 0.887991C290.151 -0.819009 293.565 0.0349915 296.125 2.59499L372.925 79.395C375.485 81.955 376.338 85.368 374.632 88.782C373.777 92.195 370.364 93.901 366.951 93.901ZM298.684 76.835H346.471L298.684 29.048V76.835Z" fill="black"/>
<path d="M290.151 238.968H85.351C80.231 238.968 76.818 235.555 76.818 230.435C76.818 225.315 80.231 221.902 85.351 221.902H290.151C295.271 221.902 298.684 225.315 298.684 230.435C298.684 235.555 295.271 238.968 290.151 238.968Z" fill="black"/>
<path d="M256.017 290.168H119.484C114.364 290.168 110.951 286.755 110.951 281.635C110.951 276.515 114.364 273.102 119.484 273.102H256.017C261.137 273.102 264.55 276.515 264.55 281.635C264.55 286.755 261.137 290.168 256.017 290.168Z" fill="black"/>
<path d="M290.151 341.368H85.351C80.231 341.368 76.818 337.955 76.818 332.835C76.818 327.715 80.231 324.302 85.351 324.302H290.151C295.271 324.302 298.684 327.715 298.684 332.835C298.684 337.955 295.271 341.368 290.151 341.368Z" fill="black"/>
<path d="M256.017 392.568H119.484C114.364 392.568 110.951 389.155 110.951 384.035C110.951 378.915 114.364 375.502 119.484 375.502H256.017C261.137 375.502 264.55 378.915 264.55 384.035C264.551 389.155 261.137 392.568 256.017 392.568Z" fill="black"/>
<path d="M256.017 187.768H119.484C114.364 187.768 110.951 184.355 110.951 179.235C110.951 174.115 114.364 170.702 119.484 170.702H256.017C261.137 170.702 264.55 174.115 264.55 179.235C264.551 184.355 261.137 187.768 256.017 187.768Z" fill="black"/>
<path d="M503.484 443.768H452.284C447.164 443.768 443.751 440.355 443.751 435.235V51.235C443.751 46.115 447.164 42.702 452.284 42.702H503.484C508.604 42.702 512.017 46.115 512.017 51.235V435.235C512.017 440.355 508.604 443.768 503.484 443.768ZM460.817 426.701H494.95V59.768H460.817V426.701Z" fill="black"/>
<path d="M494.951 59.768H460.818C455.698 59.768 452.285 56.355 452.285 51.235V21.368C452.285 9.421 461.672 0.0350037 473.618 0.0350037H482.151C494.098 0.0350037 503.484 9.422 503.484 21.368V51.235C503.484 56.355 500.071 59.768 494.951 59.768ZM469.351 42.701H486.418V21.368C486.418 18.808 484.711 17.101 482.151 17.101H473.618C471.058 17.101 469.351 18.808 469.351 21.368V42.701Z" fill="black"/>
<path d="M418.151 85.368C414.738 85.368 412.178 83.661 410.471 80.248C408.764 75.981 410.471 70.861 413.884 69.155L448.017 52.088C452.284 50.381 457.404 52.088 459.11 55.501C460.817 59.768 459.11 64.888 455.697 66.594L421.564 83.661C420.711 85.368 419.857 85.368 418.151 85.368Z" fill="black"/>
<path d="M418.151 196.301C413.031 196.301 409.618 192.888 409.618 187.768V76.835C409.618 71.715 413.031 68.302 418.151 68.302C423.271 68.302 426.684 71.715 426.684 76.835V187.768C426.684 192.888 423.271 196.301 418.151 196.301Z" fill="black"/>
<path d="M486.417 494.968H469.35C465.937 494.968 462.523 492.408 461.67 488.995L444.603 437.795C443.75 435.235 443.75 432.675 445.456 430.115C447.163 427.555 449.723 426.702 452.283 426.702H503.483C506.043 426.702 508.603 428.409 510.31 430.115C512.017 432.675 512.017 435.235 511.163 437.795L494.096 488.995C493.244 492.408 489.831 494.968 486.417 494.968ZM475.324 477.901H480.444L491.537 443.768H464.23L475.324 477.901Z" fill="black"/>
<path d="M477.884 512.035C472.764 512.035 469.351 508.622 469.351 503.502V486.435C469.351 481.315 472.764 477.902 477.884 477.902C483.004 477.902 486.417 481.315 486.417 486.435V503.502C486.417 508.621 483.004 512.035 477.884 512.035Z" fill="black"/>
<path d="M503.484 443.768H452.284C447.164 443.768 443.751 440.355 443.751 435.235V298.701C443.751 293.581 447.164 290.168 452.284 290.168H503.484C508.604 290.168 512.017 293.581 512.017 298.701V435.234C512.017 440.355 508.604 443.768 503.484 443.768ZM460.817 426.701H494.95V307.235H460.817V426.701Z" fill="black"/>
<path d="M503.484 409.635H452.284C447.164 409.635 443.751 406.222 443.751 401.102C443.751 395.982 447.164 392.569 452.284 392.569H503.484C508.604 392.569 512.017 395.982 512.017 401.102C512.017 406.222 508.604 409.635 503.484 409.635Z" fill="black"/>
<path d="M503.484 375.501H452.284C447.164 375.501 443.751 372.088 443.751 366.968C443.751 361.848 447.164 358.435 452.284 358.435H503.484C508.604 358.435 512.017 361.848 512.017 366.968C512.017 372.088 508.604 375.501 503.484 375.501Z" fill="black"/>
<path d="M503.484 341.368H452.284C447.164 341.368 443.751 337.955 443.751 332.835C443.751 327.715 447.164 324.302 452.284 324.302H503.484C508.604 324.302 512.017 327.715 512.017 332.835C512.017 337.955 508.604 341.368 503.484 341.368Z" fill="black"/>
</g>
<defs>
<clipPath id="clip0_15_327">
<rect width="512.035" height="512.035" fill="white"/>
</clipPath>
</defs>
</svg>
